# xmcd
#
# Track frame offsets:
#	150
#	17968
#	38602
#	55612
#	74992
#	99971
#	113124
#	127894
#	144927
#	164648
#	181153
#	195054
#	208323
#	226345
#
# Disc length: 3315 seconds
#
# Revision: 0
# Processed by: cddbd v1.4PL0 Copyright (c) Steve Scherf et al.
# Submitted via: dBpowerAMP V4.0
#
DISCID=bb0cf10e
DTITLE=Renovators - Blues Country
DYEAR=2002
DGENRE=Blues
TTITLE0=Blues Country
TTITLE1=Drinkin You Off My Mind
TTITLE2=That Lonesome Whistle
TTITLE3=Between The Lines
TTITLE4=She Took The Wrong Way Home
TTITLE5=Dancin With Lorraine
TTITLE6=A Man Of Her Own
TTITLE7=The Deepest Blue
TTITLE8=The Heart Knows Whats Real
TTITLE9=You Must Be Over Me Cause You're Under Him
TTITLE10=The Girls Are Out
TTITLE11=Dancin With Lorraine
TTITLE12=No Better Place To Be (River Song)
TTITLE13=Ten Gallon Heart
EXTD=
EXTT0=
EXTT1=
EXTT2=
EXTT3=
EXTT4=
EXTT5=
EXTT6=
EXTT7=
EXTT8=
EXTT9=
EXTT10=
EXTT11=
EXTT12=
EXTT13=
PLAYORDER=
